<svg width="40" height="40" viewBox="0 0 40 40" fill="none" xmlns="http://www.w3.org/2000/svg">
<rect width="40" height="40" rx="8" fill="#6565FF"/>
<path fill-rule="evenodd" clip-rule="evenodd" d="M20.29 19.71L23.29 22.71C23.47 22.89 23.72 23 24 23C24.28 23 24.53 22.89 24.71 22.71L27.71 19.71C27.89 19.53 28 19.28 28 19C28 18.45 27.55 18 27 18C26.72 18 26.47 18.11 26.29 18.29L25 19.59V13C25 12.45 24.55 12 24 12C23.45 12 23 12.45 23 13V19.59L21.71 18.29C21.53 18.11 21.28 18 21 18C20.45 18 20 18.45 20 19C20 19.28 20.11 19.53 20.29 19.71ZM26.5 25H13.5C12.67 25 12 25.67 12 26.5C12 27.33 12.67 28 13.5 28H26.5C27.33 28 28 27.33 28 26.5C28 25.67 27.33 25 26.5 25ZM13 17C13.28 17 13.53 16.89 13.71 16.71L15 15.41V22C15 22.55 15.45 23 16 23C16.55 23 17 22.55 17 22V15.41L18.29 16.7C18.47 16.89 18.72 17 19 17C19.55 17 20 16.55 20 16C20 15.72 19.89 15.47 19.71 15.29L16.71 12.29C16.53 12.11 16.28 12 16 12C15.72 12 15.47 12.11 15.29 12.29L12.29 15.29C12.11 15.47 12 15.72 12 16C12 16.55 12.45 17 13 17Z" fill="white"/>
</svg>
