<svg width="40" height="40" viewBox="0 0 40 40" fill="none" xmlns="http://www.w3.org/2000/svg">
<rect width="40" height="40" rx="8" fill="#6565FF"/>
<path fill-rule="evenodd" clip-rule="evenodd" d="M24.83 21.51C24.73 21.21 24.58 20.93 24.38 20.67C24.18 20.41 23.93 20.18 23.63 19.97C23.33 19.77 22.98 19.61 22.58 19.49C22.42 19.45 22.15 19.38 21.78 19.29C21.43 19.2 21.05 19.11 20.66 19.01C20.27 18.91 19.92 18.82 19.6 18.74C19.29 18.66 19.11 18.62 19.06 18.61C18.63 18.49 18.28 18.32 18.01 18.09C17.74 17.86 17.61 17.54 17.61 17.14C17.61 16.85 17.68 16.61 17.82 16.42C17.96 16.23 18.14 16.08 18.36 15.96C18.58 15.85 18.82 15.77 19.08 15.72C19.34 15.67 19.6 15.64 19.85 15.64C20.59 15.64 21.2 15.79 21.68 16.1C22.16 16.4 22.43 16.93 22.49 17.66H24.63C24.63 17.06 24.5 16.53 24.25 16.08C24 15.63 23.66 15.24 23.23 14.93C22.8 14.62 22.3 14.39 21.74 14.23C21.5 14.17 21.25 14.13 20.99 14.09V13C20.99 12.45 20.54 12 19.99 12C19.44 12 18.99 12.45 18.99 13V14.08C18.76 14.11 18.53 14.15 18.31 14.21C17.77 14.34 17.29 14.55 16.87 14.82C16.45 15.1 16.11 15.45 15.85 15.87C15.59 16.3 15.46 16.8 15.46 17.37C15.46 17.67 15.5 17.96 15.59 18.25C15.68 18.54 15.82 18.81 16.03 19.07C16.24 19.33 16.51 19.56 16.86 19.77C17.21 19.98 17.65 20.15 18.17 20.28C19.02 20.49 19.73 20.66 20.31 20.8C20.89 20.93 21.39 21.08 21.83 21.22C22.08 21.31 22.31 21.45 22.52 21.66C22.73 21.87 22.84 22.19 22.84 22.63C22.84 22.84 22.79 23.05 22.7 23.26C22.61 23.47 22.46 23.65 22.25 23.81C22.04 23.97 21.78 24.1 21.44 24.2C21.11 24.3 20.71 24.35 20.24 24.35C19.81 24.35 19.4 24.3 19.03 24.21C18.66 24.12 18.33 23.97 18.04 23.78C17.75 23.58 17.53 23.33 17.37 23.02C17.21 22.71 17.13 22.34 17.13 21.9H15C15.01 22.61 15.15 23.22 15.43 23.74C15.7 24.26 16.07 24.68 16.53 25.01C16.99 25.34 17.52 25.59 18.14 25.75C18.41 25.82 18.7 25.87 18.99 25.91V27C18.99 27.55 19.44 28 19.99 28C20.54 28 20.99 27.55 20.99 27V25.95C21.29 25.92 21.6 25.87 21.89 25.8C22.47 25.67 22.99 25.46 23.45 25.17C23.91 24.88 24.28 24.51 24.56 24.06C24.84 23.61 24.98 23.06 24.98 22.42C24.98 22.11 24.93 21.81 24.83 21.51Z" fill="white"/>
</svg>
