<svg width="16" height="16" viewBox="0 0 16 16" fill="none" xmlns="http://www.w3.org/2000/svg">
<path fill-rule="evenodd" clip-rule="evenodd" d="M0.55 4.89V4.89L7.55 8.39V8.39C7.69 8.46 7.84 8.5 8 8.5C8.16 8.5 8.31 8.46 8.45 8.39V8.39L15.45 4.89V4.89C15.77 4.73 16 4.39 16 4C16 3.59 15.75 3.23 15.39 3.08V3.08V3.08V3.08L8.4 0.08V0.08C8.27 0.03 8.14 0 8 0C7.86 0 7.73 0.03 7.61 0.08V0.08L0.62 3.08V3.08V3.08V3.08C0.25 3.23 0 3.59 0 4C0 4.39 0.23 4.73 0.55 4.89ZM15 10C14.84 10 14.69 10.04 14.55 10.11V10.11L8 13.38L1.45 10.1V10.1C1.31 10.04 1.16 10 1 10C0.45 10 0 10.45 0 11C0 11.39 0.23 11.73 0.55 11.89V11.89L7.55 15.39V15.39C7.69 15.46 7.84 15.5 8 15.5C8.16 15.5 8.31 15.46 8.45 15.39V15.39L15.45 11.89V11.89C15.77 11.73 16 11.39 16 11C16 10.45 15.55 10 15 10ZM15 6.5C14.84 6.5 14.69 6.54 14.55 6.61V6.61L8 9.88L1.45 6.61V6.61C1.31 6.54 1.16 6.5 1 6.5C0.45 6.5 0 6.95 0 7.5C0 7.89 0.23 8.23 0.55 8.39V8.39L7.55 11.89V11.89C7.69 11.96 7.84 12 8 12C8.16 12 8.31 11.96 8.45 11.89V11.89L15.45 8.39V8.39C15.77 8.23 16 7.89 16 7.5C16 6.95 15.55 6.5 15 6.5Z" fill="black" fill-opacity="0.6"/>
</svg>
