<svg width="40" height="40" viewBox="0 0 40 40" fill="none" xmlns="http://www.w3.org/2000/svg">
<rect width="40" height="40" rx="8" fill="#6565FF"/>
<path fill-rule="evenodd" clip-rule="evenodd" d="M20 12C15.58 12 12 15.58 12 20C12 24.42 15.58 28 20 28C24.42 28 28 24.42 28 20C28 15.58 24.42 12 20 12ZM20 26C16.69 26 14 23.31 14 20C14 16.69 16.69 14 20 14C23.31 14 26 16.69 26 20C26 23.31 23.31 26 20 26ZM21 19.59V16C21 15.45 20.55 15 20 15C19.45 15 19 15.45 19 16V20C19 20.28 19.11 20.53 19.29 20.71L21.29 22.71C21.47 22.89 21.72 23 22 23C22.55 23 23 22.55 23 22C23 21.72 22.89 21.47 22.71 21.29L21 19.59Z" fill="white"/>
</svg>
